# xmcd
#
# Track frame offsets:
#  150
#  18009
#  37679
#  58458
#  83307
#  99903
#  116936
#  130319
#  142293
#  154190
#  179723
#  193954
#  209951
#  228148
#  244361
#
# Disc length: 3546 seconds
#
# Revision: 0
# Processed by: cddbd v1.5.1PL2 Copyright (c) Steve Scherf et al.
# Submitted via: Collectorz.com_Music_Collector 6.9
#
DISCID=db0dd80f
DTITLE=Brian Wicklund and Ben Winship - Big Twang
DYEAR=2005
DGENRE=Americana
TTITLE0=Tangled Roots
TTITLE1=Russian Lullaby
TTITLE2=Old Man Winter - Shadows on the Mountain - Rabbit Creek
TTITLE3=Old Black Coat
TTITLE4=Glory at the Meeting House - Chinkapin Hunting
TTITLE5=Spiritual
TTITLE6=Any Old Time
TTITLE7=Mysterieuse
TTITLE8=Randall Collins
TTITLE9=Chilly Winds
TTITLE10=Little Rock Getaway
TTITLE11=Millenium Waltz
TTITLE12=Glory of Love
TTITLE13=Uncle Jack
TTITLE14=Pigmeat
EXTD=
EXTT0=
EXTT1=
EXTT2=
EXTT3=
EXTT4=
EXTT5=
EXTT6=
EXTT7=
EXTT8=
EXTT9=
EXTT10=
EXTT11=
EXTT12=
EXTT13=
EXTT14=
PLAYORDER=
